<?xml version="1.0" encoding="UTF-8"?>
<!DOCTYPE svg PUBLIC "-//W3C//DTD SVG 1.1//EN" "http://www.w3.org/Graphics/SVG/1.1/DTD/svg11.dtd">
<svg xmlns="http://www.w3.org/2000/svg" version="1.1" width="1536px" height="768px" style="shape-rendering:geometricPrecision; text-rendering:geometricPrecision; image-rendering:optimizeQuality; fill-rule:evenodd; clip-rule:evenodd" xmlns:xlink="http://www.w3.org/1999/xlink">
<g><path style="opacity:1" fill="#196b69" d="M -0.5,-0.5 C 511.5,-0.5 1023.5,-0.5 1535.5,-0.5C 1535.5,255.5 1535.5,511.5 1535.5,767.5C 1023.5,767.5 511.5,767.5 -0.5,767.5C -0.5,511.5 -0.5,255.5 -0.5,-0.5 Z"/></g>
<g><path style="opacity:1" fill="#dcfde3" d="M 153.5,76.5 C 562.833,76.5 972.167,76.5 1381.5,76.5C 1381.5,242.833 1381.5,409.167 1381.5,575.5C 1228.17,575.5 1074.83,575.5 921.5,575.5C 921.5,569.167 921.5,562.833 921.5,556.5C 1068.5,556.5 1215.5,556.5 1362.5,556.5C 1362.5,402.833 1362.5,249.167 1362.5,95.5C 965.833,95.5 569.167,95.5 172.5,95.5C 172.5,249.167 172.5,402.833 172.5,556.5C 319.5,556.5 466.5,556.5 613.5,556.5C 613.5,562.833 613.5,569.167 613.5,575.5C 460.167,575.5 306.833,575.5 153.5,575.5C 153.5,409.167 153.5,242.833 153.5,76.5 Z"/></g>
<g><path style="opacity:1" fill="#d8fae1" d="M 426.5,243.5 C 438.886,243.106 451.22,243.606 463.5,245C 478.18,249.68 487.346,259.513 491,274.5C 491.667,295.167 491.667,315.833 491,336.5C 486.603,353.564 475.77,363.731 458.5,367C 443.837,367.5 429.17,367.667 414.5,367.5C 414.333,328.499 414.5,289.499 415,250.5C 418.814,248.016 422.647,245.682 426.5,243.5 Z"/></g>
<g><path style="opacity:1" fill="#dcfde3" d="M 946.5,243.5 C 968.843,243.167 991.177,243.5 1013.5,244.5C 1011.54,248.754 1009.87,253.088 1008.5,257.5C 1000.17,257.5 991.833,257.5 983.5,257.5C 983.5,289.5 983.5,321.5 983.5,353.5C 993.522,353.168 1003.52,353.501 1013.5,354.5C 1011.54,358.754 1009.87,363.088 1008.5,367.5C 985.824,367.833 963.157,367.5 940.5,366.5C 942.407,362.273 944.407,358.106 946.5,354C 954.493,353.5 962.493,353.334 970.5,353.5C 970.5,321.5 970.5,289.5 970.5,257.5C 960.478,257.832 950.478,257.499 940.5,256.5C 942.506,252.137 944.506,247.804 946.5,243.5 Z"/></g>
<g><path style="opacity:1" fill="#dbfde3" d="M 1112.5,331.5 C 1113.48,334.625 1113.81,337.958 1113.5,341.5C 1108.6,361.965 1095.6,371.131 1074.5,369C 1062.23,365.061 1054.39,356.894 1051,344.5C 1050.5,326.503 1050.33,308.503 1050.5,290.5C 1047.17,290.5 1043.83,290.5 1040.5,290.5C 1041.71,286.1 1043.21,281.767 1045,277.5C 1046.7,276.594 1048.53,276.261 1050.5,276.5C 1050.33,267.161 1050.5,257.827 1051,248.5C 1055,246.5 1059,244.5 1063,242.5C 1063.5,253.828 1063.67,265.162 1063.5,276.5C 1077.84,276.333 1092.17,276.5 1106.5,277C 1104.5,281.333 1102.5,285.667 1100.5,290C 1088.17,290.5 1075.84,290.667 1063.5,290.5C 1063.33,307.17 1063.5,323.837 1064,340.5C 1067.26,351.743 1074.76,356.576 1086.5,355C 1095.31,351.719 1100.31,345.386 1101.5,336C 1105.43,334.972 1109.1,333.472 1112.5,331.5 Z"/></g>
<g><path style="opacity:1" fill="#196b69" d="M 428.5,256.5 C 467.844,249.844 484.178,266.178 477.5,305.5C 484.188,344.812 467.855,361.145 428.5,354.5C 428.5,321.833 428.5,289.167 428.5,256.5 Z"/></g>
<g><path style="opacity:1" fill="#dbfce2" d="M 550.5,274.5 C 572.188,272.816 585.188,282.482 589.5,303.5C 589.167,304.833 588.833,306.167 588.5,307.5C 584.714,308.893 581.048,310.559 577.5,312.5C 577.765,295.929 569.765,288.096 553.5,289C 546.333,290.833 541.833,295.333 540,302.5C 539.667,322.833 539.333,343.167 539,363.5C 534.876,365.229 530.876,367.229 527,369.5C 526.333,346.167 526.333,322.833 527,299.5C 530.554,287.114 538.387,278.78 550.5,274.5 Z"/></g>
<g><path style="opacity:1" fill="#dbfce2" d="M 655.5,274.5 C 672.654,272.658 685.154,279.324 693,294.5C 694.614,317.458 694.947,340.458 694,363.5C 689.876,365.229 685.876,367.229 682,369.5C 681.5,353.837 681.333,338.17 681.5,322.5C 670.972,326.094 660.639,330.261 650.5,335C 643.08,340.656 642.747,346.656 649.5,353C 656.411,356.111 663.411,356.278 670.5,353.5C 671.223,357.669 672.556,361.669 674.5,365.5C 656.042,373.736 641.875,369.069 632,351.5C 628.946,340.852 631.779,332.019 640.5,325C 652.818,318.892 665.485,313.559 678.5,309C 681.951,306.428 682.451,303.261 680,299.5C 675.17,291.335 668.003,287.835 658.5,289C 649.562,292.337 644.562,298.837 643.5,308.5C 639.714,309.893 636.048,311.559 632.5,313.5C 630.47,294.847 638.137,281.847 655.5,274.5 Z"/></g>
<g><path style="opacity:1" fill="#aedbc6" d="M 739.5,275.5 C 739.56,274.957 739.893,274.624 740.5,274.5C 741.5,299.158 741.833,323.824 741.5,348.5C 740.833,324.167 740.167,299.833 739.5,275.5 Z"/></g>
<g><path style="opacity:1" fill="#d9fbe1" d="M 739.5,275.5 C 740.167,299.833 740.833,324.167 741.5,348.5C 745.781,357.853 751.614,358.853 759,351.5C 760.304,327.896 760.97,304.23 761,280.5C 765,278.5 769,276.5 773,274.5C 773.333,299.5 773.667,324.5 774,349.5C 778.402,357.558 784.068,358.558 791,352.5C 792.138,328.556 792.971,304.556 793.5,280.5C 797.5,278.5 801.5,276.5 805.5,274.5C 806.667,300.494 806.833,326.494 806,352.5C 799.985,366.591 789.485,371.757 774.5,368C 771.735,366.871 769.235,365.371 767,363.5C 749.255,374.584 736.255,370.584 728,351.5C 727.167,327.826 727.334,304.16 728.5,280.5C 732.043,278.562 735.71,276.895 739.5,275.5 Z"/></g>
<g><path style="opacity:1" fill="#65a498" d="M 1112.5,331.5 C 1112.56,330.957 1112.89,330.624 1113.5,330.5C 1114.81,334.315 1114.81,337.981 1113.5,341.5C 1113.81,337.958 1113.48,334.625 1112.5,331.5 Z"/></g>
<g><path style="opacity:1" fill="#dbfce2" d="M 808.5,470.5 C 809.043,470.44 809.376,470.107 809.5,469.5C 774.336,468.17 739.336,468.17 704.5,469.5C 698.815,471.019 695.315,474.686 694,480.5C 693.5,521.165 693.333,561.832 693.5,602.5C 715.169,602.333 736.836,602.5 758.5,603C 757.039,605.421 755.706,607.921 754.5,610.5C 728.175,611.5 701.842,611.833 675.5,611.5C 675.334,617.842 675.5,624.175 676,630.5C 678.372,636.608 682.872,639.608 689.5,639.5C 705.833,640.167 722.167,640.833 738.5,641.5C 737.914,643.84 736.914,646.007 735.5,648C 716.781,648.948 698.114,648.614 679.5,647C 673.121,643.62 668.954,638.454 667,631.5C 666.5,621.839 666.334,612.172 666.5,602.5C 672.5,602.5 678.5,602.5 684.5,602.5C 684.333,560.499 684.5,518.499 685,476.5C 687.729,470.437 691.896,465.603 697.5,462C 743.108,460.349 788.774,460.015 834.5,461C 841.181,463.013 846.014,467.18 849,473.5C 850.356,481.095 850.856,488.762 850.5,496.5C 838.167,496.5 825.833,496.5 813.5,496.5C 813.5,501.167 813.5,505.833 813.5,510.5C 810.5,510.5 807.5,510.5 804.5,510.5C 804.333,499.495 804.5,488.495 805,477.5C 806.18,475.14 807.347,472.807 808.5,470.5 Z"/></g>
<g><path style="opacity:1" fill="#aedbc6" d="M 704.5,469.5 C 739.336,468.17 774.336,468.17 809.5,469.5C 809.376,470.107 809.043,470.44 808.5,470.5C 774.004,469.502 739.337,469.168 704.5,469.5 Z"/></g>
<g><path style="opacity:1" fill="#1c6c6a" d="M 822.5,469.5 C 836.027,468.029 842.361,474.029 841.5,487.5C 832.167,487.5 822.833,487.5 813.5,487.5C 812.345,479.237 815.345,473.237 822.5,469.5 Z"/></g>
<g><path style="opacity:1" fill="#92c5b4" d="M 771.5,508.5 C 771.5,504.833 771.5,501.167 771.5,497.5C 768.833,497.5 766.167,497.5 763.5,497.5C 763.81,500.713 763.477,503.713 762.5,506.5C 762.5,503.167 762.5,499.833 762.5,496.5C 765.833,496.5 769.167,496.5 772.5,496.5C 772.817,500.702 772.483,504.702 771.5,508.5 Z"/></g>
<g><path style="opacity:1" fill="#d3f6dd" d="M 709.5,496.5 C 713.789,495.483 716.122,497.15 716.5,501.5C 714.636,505.908 711.803,506.575 708,503.5C 707.4,500.905 707.9,498.571 709.5,496.5 Z"/></g>
<g><path style="opacity:1" fill="#d4f7de" d="M 724.5,496.5 C 730.651,497.103 731.984,499.936 728.5,505C 723,506.167 720.833,504 722,498.5C 722.995,497.934 723.828,497.267 724.5,496.5 Z"/></g>
<g><path style="opacity:1" fill="#d8fae1" d="M 738.5,496.5 C 744.348,497.463 745.681,500.297 742.5,505C 737.502,506.33 735.336,504.496 736,499.5C 736.698,498.309 737.531,497.309 738.5,496.5 Z"/></g>
<g><path style="opacity:1" fill="#d1f5dc" d="M 751.5,496.5 C 758.006,496.807 759.672,499.64 756.5,505C 749.416,505.475 747.749,502.642 751.5,496.5 Z"/></g>
<g><path style="opacity:1" fill="#d9fbe2" d="M 771.5,508.5 C 767.33,534.015 752.997,550.849 728.5,559C 721.588,560.572 714.588,561.406 707.5,561.5C 707.5,558.5 707.5,555.5 707.5,552.5C 734.13,552.621 751.964,540.287 761,515.5C 761.953,512.568 762.453,509.568 762.5,506.5C 763.477,503.713 763.81,500.713 763.5,497.5C 766.167,497.5 768.833,497.5 771.5,497.5C 771.5,501.167 771.5,504.833 771.5,508.5 Z"/></g>
<g><path style="opacity:1" fill="#d1f5dc" d="M 778.5,496.5 C 785.486,496.331 787.153,499.164 783.5,505C 776.406,505.513 774.739,502.679 778.5,496.5 Z"/></g>
<g><path style="opacity:1" fill="#d3f7de" d="M 710.5,510.5 C 716.643,511.026 717.976,513.86 714.5,519C 709.502,520.33 707.336,518.496 708,513.5C 708.698,512.309 709.531,511.309 710.5,510.5 Z"/></g>
<g><path style="opacity:1" fill="#d6f9e0" d="M 728.5,515.5 C 735.924,515.62 737.257,518.454 732.5,524C 727.504,524.664 725.67,522.498 727,517.5C 727.717,516.956 728.217,516.289 728.5,515.5 Z"/></g>
<g><path style="opacity:1" fill="#d8fae1" d="M 785.5,519.5 C 801.17,519.333 816.837,519.5 832.5,520C 837.883,523.338 837.717,526.505 832,529.5C 831.333,541.167 831.333,552.833 832,564.5C 846.216,592.265 859.883,620.265 873,648.5C 873.666,658.666 869.5,666.166 860.5,671C 826.5,671.667 792.5,671.667 758.5,671C 746.052,664.992 742.219,655.492 747,642.5C 760,616.5 773,590.5 786,564.5C 786.667,552.833 786.667,541.167 786,529.5C 780.18,526.278 780.013,522.944 785.5,519.5 Z"/></g>
<g><path style="opacity:1" fill="#d2f6dd" d="M 709.5,524.5 C 716.486,524.331 718.153,527.164 714.5,533C 707.409,533.396 705.742,530.562 709.5,524.5 Z"/></g>
<g><path style="opacity:1" fill="#d8fae1" d="M 742.5,524.5 C 748.643,525.026 749.976,527.86 746.5,533C 742.885,533.952 740.552,532.619 739.5,529C 740.386,527.385 741.386,525.885 742.5,524.5 Z"/></g>
<g><path style="opacity:1" fill="#9dcebb" d="M 795.5,529.5 C 804.652,528.506 813.985,528.173 823.5,528.5C 823.5,541.5 823.5,554.5 823.5,567.5C 822.505,555.011 822.171,542.344 822.5,529.5C 813.5,529.5 804.5,529.5 795.5,529.5 Z"/></g>
<g><path style="opacity:1" fill="#196b69" d="M 795.5,529.5 C 804.5,529.5 813.5,529.5 822.5,529.5C 822.171,542.344 822.505,555.011 823.5,567.5C 826.5,574.167 829.5,580.833 832.5,587.5C 816.675,588.496 800.675,588.83 784.5,588.5C 787.987,581.527 791.487,574.527 795,567.5C 795.5,554.838 795.667,542.171 795.5,529.5 Z"/></g>
<g><path style="opacity:1" fill="#d3f7de" d="M 709.5,538.5 C 716.486,538.331 718.153,541.164 714.5,547C 710.229,548.513 707.895,547.013 707.5,542.5C 707.752,540.927 708.418,539.594 709.5,538.5 Z"/></g>
<g><path style="opacity:1" fill="#d6f9e0" d="M 764.5,543.5 C 771.158,542.344 773.158,544.844 770.5,551C 763.75,552.469 761.75,549.969 764.5,543.5 Z"/></g>
<g><path style="opacity:1" fill="#d9fbe1" d="M 709.5,566.5 C 715.521,565.573 717.521,567.906 715.5,573.5C 708.345,575.351 706.345,573.018 709.5,566.5 Z"/></g>
<g><path style="opacity:1" fill="#d5f8df" d="M 710.5,579.5 C 716.643,580.026 717.976,582.86 714.5,588C 709.545,589.376 707.379,587.542 708,582.5C 709.045,581.627 709.878,580.627 710.5,579.5 Z"/></g>
<g><path style="opacity:1" fill="#70ac9f" d="M 832.5,587.5 C 833.043,587.56 833.376,587.893 833.5,588.5C 817.005,589.827 800.672,589.827 784.5,588.5C 800.675,588.83 816.675,588.496 832.5,587.5 Z"/></g>
<g><path style="opacity:1" fill="#1a6b69" d="M 779.5,598.5 C 799.169,598.333 818.836,598.5 838.5,599C 847.128,615.756 855.628,632.589 864,649.5C 864.604,655.125 862.438,659.292 857.5,662C 824.833,662.667 792.167,662.667 759.5,662C 754.79,659.081 752.957,654.915 754,649.5C 762.513,632.473 771.013,615.473 779.5,598.5 Z"/></g>
<g><path style="opacity:1" fill="#d4f7de" d="M 797.5,616.5 C 803.803,616.924 805.469,619.757 802.5,625C 795.416,625.475 793.749,622.642 797.5,616.5 Z"/></g>
<g><path style="opacity:1" fill="#dafce2" d="M 821.5,635.5 C 831.818,635.322 834.151,639.489 828.5,648C 822.613,649.565 819.28,647.398 818.5,641.5C 818.628,639.045 819.628,637.045 821.5,635.5 Z"/></g>
<g><path style="opacity:1" fill="#aedcc6" d="M 689.5,639.5 C 706.18,639.167 722.847,639.501 739.5,640.5C 739.376,641.107 739.043,641.44 738.5,641.5C 722.167,640.833 705.833,640.167 689.5,639.5 Z"/></g>
</svg>
